<svg xmlns="http://www.w3.org/2000/svg" viewBox="0 0 400 225" width="225" height="400" stroke-linecap="round" stroke-linejoin="round" stroke-width="6" font-family="Helvetica Neue" font-weight="800" font-size="80">
  <rect fill="#000" x="0" y="0" width="100%" height="100%" rx="2%"></rect>

  <g fill="none" stroke="#fffd"  transform="translate(190, 32) scale(0.8)">
   <path d="m119 11-14 3 1 1 18 9 4 3 4-3 18-9c2-1 1-1-4-2-10-3-19-3-27-2z"/>
   <path d="M80 20c-9 2-20 7-32 16-8 6-13 11-13 12v3l13 14 12 11v38l-1 67v28l-1 1c-2 1-4 2-6 1-2-2-3-3-3-20v-16l-3 2c-13 6-23 16-29 28-5 9-6 17-7 29v8l2 2 1 2h230l1-2 2-2v-8l-2-13c-4-20-16-35-34-45l-3-1v16c0 17 0 18-3 20-1 1-4 1-6-1l-1-1v-53l1-2c5-4 4-9 0-13-2-2-2-4 0-6l4-7-4-7-2-1V76l12-11 13-14c1-2 0-4-4-7l-19-14c-5-4-12-7-17-9-10-3-22 0-37 8l-11 6-5 3-6-3c-17-11-32-16-42-15zm57 40 9 9h21v10H89V69h22l8-9 9-8 9 8zm-58 72v62l-2 1c-1 2-3 2-5 1-3-1-3 2-3-62V76l2-2 7-4 1 62zm103-60 3 2 2 2v44l-1 1-4 7c0 2 2 6 4 7 1 2 1 4-1 6-3 3-4 6-3 8s2 5 4 6l1 19-1 20c-2 3-5 3-7 1l-2-1V70h2l3 2zm-15 43v27l-3 3c-3 5-11 13-15 15-17 12-35 9-51-7l-6-8-3-3V89h78v26zm-70 50 7 5 4 3 2 17c3 31 3 30 6 31h4c3-2 3-3 2-10v-26c2-6 3-8 6-8s5 4 6 10v25c-1 6-1 7 2 9h4c3-1 3 0 6-31l2-17 4-3 13-10 2-2v13l-2 2-5 4-3 2-3 29-3 15c-4 7-12 10-20 7l-3-2-3 1c-5 2-9 2-13 1-3-2-6-4-7-7l-3-15-3-28-4-4-5-4-1-1v-13l3 2 5 5z" />
   <path d="m122 123-3 3c-3 2-3 2-7 2s-7 2-10 4c-4 4-5 7-2 9 3 3 5 2 8-1 2-2 4-2 7-2 4 0 6-1 9-5l4-3c0-1 0-1 0 0l4 3c3 4 5 5 9 5l8 2c1 3 5 3 7 1 3-3 2-5-2-9-3-2-6-4-10-4s-4 0-6-2l-4-3-5 2-1 1-1-1-5-2z"/>
   <path d="m121 143-3 4 3 8 5 7h4l5-7 3-7c0-2-1-4-3-5h-14z"/>
</g>

  <text x="10" y="100" transform="rotate(0) translate(3, 43)" fill="#888">Depp</text>
  <text x="10" y="100" transform="rotate(0) translate(0, 40)" fill="#fff">Depp</text>
</svg>
